<svg width="24" height="22" viewBox="0 0 24 22" fill="none" xmlns="http://www.w3.org/2000/svg">
<path fill-rule="evenodd" clip-rule="evenodd" d="M5.61499 3.19959C6.36928 2.91987 7.85742 3.09116 8.25028 3.94287C8.58499 4.66887 8.87256 5.89302 8.88828 5.63216C8.92599 5.0523 8.85056 3.7983 9.10356 3.14302C9.28742 2.6653 9.64885 2.21587 10.1816 2.05716C10.6294 1.92202 11.1558 1.87487 11.621 1.97073C12.1128 2.0713 12.6298 2.42173 12.8231 2.75487C13.392 3.73387 13.4014 5.73902 13.4281 5.63216C13.5287 5.20473 13.5381 3.70087 13.8728 3.14302C14.0944 2.77373 14.6538 2.44373 14.9524 2.3903C15.4144 2.30859 15.9833 2.28345 16.4673 2.37773C16.8586 2.45473 17.3881 2.9183 17.5311 3.14302C17.8753 3.68359 18.0686 5.21102 18.1267 5.74845C18.1518 5.97002 18.243 5.13087 18.5871 4.59187C19.2251 3.58773 21.4848 3.39287 21.5697 5.59602C21.6106 6.62373 21.6011 6.57659 21.6011 7.26802C21.6011 8.07887 21.5823 8.56916 21.5383 9.15687C21.4911 9.78387 21.356 11.206 21.1596 11.8943C21.0244 12.3673 20.5766 13.4312 20.1334 14.0692C20.1334 14.0692 18.4457 16.0334 18.2618 16.9166C18.078 17.8013 18.1393 17.8076 18.1016 18.433C18.0654 19.06 18.2917 19.8834 18.2917 19.8834C18.2917 19.8834 17.033 20.0469 16.3526 19.9369C15.7381 19.8394 14.9776 18.6169 14.7811 18.2429C14.5108 17.7274 13.9341 17.8264 13.7094 18.2067C13.3574 18.8086 12.5953 19.8882 12.0594 19.9557C11.0081 20.0877 8.83013 20.0029 7.12513 19.9872C7.12513 19.9872 7.41585 18.3984 6.76842 17.8532C6.28913 17.4446 5.46413 16.6212 4.97071 16.1874L3.66328 14.7402C3.21856 14.1744 2.0887 13.2803 1.70999 11.6209C1.37528 10.15 1.40828 9.42873 1.76813 8.83945C2.13271 8.24073 2.82099 7.91387 3.11013 7.8573C3.43699 7.7913 4.19756 7.79602 4.48513 7.95473C4.83556 8.14802 4.97699 8.20459 5.25199 8.56916C5.61342 9.05159 5.74228 9.28573 5.58671 8.7593C5.46728 8.34759 5.08071 7.8243 4.90471 7.23502C4.73342 6.66773 4.27456 5.75316 4.30756 4.83702C4.32013 4.48973 4.46942 3.62545 5.61499 3.19959Z" fill="white"/>
<path fill-rule="evenodd" clip-rule="evenodd" d="M5.61499 3.19959C6.36928 2.91987 7.85742 3.09116 8.25028 3.94287C8.58499 4.66887 8.87256 5.89302 8.88828 5.63216C8.92599 5.0523 8.85056 3.7983 9.10356 3.14302C9.28742 2.6653 9.64885 2.21587 10.1816 2.05716C10.6294 1.92202 11.1558 1.87487 11.621 1.97073C12.1128 2.0713 12.6298 2.42173 12.8231 2.75487C13.392 3.73387 13.4014 5.73902 13.4281 5.63216C13.5287 5.20473 13.5381 3.70087 13.8728 3.14302C14.0944 2.77373 14.6538 2.44373 14.9524 2.3903C15.4144 2.30859 15.9833 2.28345 16.4673 2.37773C16.8586 2.45473 17.3881 2.9183 17.5311 3.14302C17.8753 3.68359 18.0686 5.21102 18.1267 5.74845C18.1518 5.97002 18.243 5.13087 18.5871 4.59187C19.2251 3.58773 21.4848 3.39287 21.5697 5.59602C21.6106 6.62373 21.6011 6.57659 21.6011 7.26802C21.6011 8.07887 21.5823 8.56916 21.5383 9.15687C21.4911 9.78387 21.356 11.206 21.1596 11.8943C21.0244 12.3673 20.5766 13.4312 20.1334 14.0692C20.1334 14.0692 18.4457 16.0334 18.2618 16.9166C18.078 17.8013 18.1393 17.8076 18.1016 18.433C18.0654 19.06 18.2917 19.8834 18.2917 19.8834C18.2917 19.8834 17.033 20.0469 16.3526 19.9369C15.7381 19.8394 14.9776 18.6169 14.7811 18.2429C14.5108 17.7274 13.9341 17.8264 13.7094 18.2067C13.3574 18.8086 12.5953 19.8882 12.0594 19.9557C11.0081 20.0877 8.83013 20.0029 7.12513 19.9872C7.12513 19.9872 7.41585 18.3984 6.76842 17.8532C6.28913 17.4446 5.46413 16.6212 4.97071 16.1874L3.66328 14.7402C3.21856 14.1744 2.0887 13.2803 1.70999 11.6209C1.37528 10.15 1.40828 9.42873 1.76813 8.83945C2.13271 8.24073 2.82099 7.91387 3.11013 7.8573C3.43699 7.7913 4.19756 7.79602 4.48513 7.95473C4.83556 8.14802 4.97699 8.20459 5.25199 8.56916C5.61342 9.05159 5.74228 9.28573 5.58671 8.7593C5.46728 8.34759 5.08071 7.8243 4.90471 7.23502C4.73342 6.66773 4.27456 5.75316 4.30756 4.83702C4.32013 4.48973 4.46942 3.62545 5.61499 3.19959Z" stroke="#8C7A0F" stroke-width="0.75" stroke-linejoin="round"/>
<path d="M16.6043 15.2969V9.86135" stroke="#8C7A0F" stroke-width="0.75" stroke-linecap="round"/>
<path d="M13.4369 15.3153L13.4118 9.85773" stroke="#8C7A0F" stroke-width="0.75" stroke-linecap="round"/>
<path d="M10.3002 9.90739L10.3332 15.2911" stroke="#8C7A0F" stroke-width="0.75" stroke-linecap="round"/>
</svg>
