<svg width="48" height="48" viewBox="0 0 48 48" fill="none" xmlns="http://www.w3.org/2000/svg">
<rect x="1" y="1" width="46" height="46" rx="23" stroke="#554A3B" stroke-width="2"/>
<path d="M11.7778 14C11.4828 14 11.2015 14.0586 10.9444 14.162L23.2245 25.5162C23.7515 26.0034 24.2242 26.0037 24.7523 25.5162L37.0556 14.162C36.7985 14.0586 36.5172 14 36.2222 14H11.7778ZM9.57871 15.9213C9.56571 16.0189 9.55556 16.121 9.55556 16.2222V31.7778C9.55556 33.0089 10.5467 34 11.7778 34H36.2222C37.4533 34 38.4444 33.0089 38.4444 31.7778V16.2222C38.4444 16.121 38.4343 16.0189 38.4213 15.9213L26.2685 27.1481C24.9941 28.3246 22.9826 28.3264 21.7083 27.1481L9.57871 15.9213Z" fill="#554A3B"/>
</svg>
