<svg width="80" height="80" viewBox="0 0 80 80" fill="none" xmlns="http://www.w3.org/2000/svg">
<g filter="url(#filter0_d_2051_28858)">
<rect x="8" y="8" width="64" height="64" rx="32" fill="white"/>
<path d="M55.9999 25.7777V36.4448C55.9999 37.4264 55.2052 38.2224 54.2223 38.2224C53.2394 38.2224 52.4447 37.4264 52.4447 36.4448V30.0697L44.8118 37.7012C44.4644 38.0486 44.0092 38.2223 43.5552 38.2223C43.0999 38.2223 42.646 38.0486 42.2986 37.7012C41.6039 37.0065 41.6039 35.8815 42.2986 35.1868L49.9301 27.5552H43.555C42.5721 27.5552 41.7774 26.7592 41.7774 25.7776C41.7774 24.796 42.5722 24 43.555 24H54.2222C55.2051 24 55.9999 24.7961 55.9999 25.7777ZM37.7012 42.2988C37.0065 41.6041 35.8815 41.6041 35.1868 42.2988L27.5552 49.9303V43.5552C27.5552 42.5723 26.7592 41.7776 25.7776 41.7776C24.796 41.7776 24 42.5724 24 43.5552V54.2224C24 55.2053 24.7961 56 25.7776 56H36.4448C37.4264 56 38.2224 55.2052 38.2224 54.2224C38.2224 53.2395 37.4263 52.4448 36.4448 52.4448H30.0697L37.7012 44.8132C38.3959 44.1185 38.396 42.9935 37.7012 42.2988Z" fill="#554A3B"/>
</g>
<defs>
<filter id="filter0_d_2051_28858" x="0" y="0" width="80" height="80" filterUnits="userSpaceOnUse" color-interpolation-filters="sRGB">
<feFlood flood-opacity="0" result="BackgroundImageFix"/>
<feColorMatrix in="SourceAlpha" type="matrix" values="0 0 0 0 0 0 0 0 0 0 0 0 0 0 0 0 0 0 127 0" result="hardAlpha"/>
<feOffset/>
<feGaussianBlur stdDeviation="4"/>
<feComposite in2="hardAlpha" operator="out"/>
<feColorMatrix type="matrix" values="0 0 0 0 0 0 0 0 0 0 0 0 0 0 0 0 0 0 0.25 0"/>
<feBlend mode="normal" in2="BackgroundImageFix" result="effect1_dropShadow_2051_28858"/>
<feBlend mode="normal" in="SourceGraphic" in2="effect1_dropShadow_2051_28858" result="shape"/>
</filter>
</defs>
</svg>
