<svg width="48" height="48" viewBox="0 0 48 48" fill="none" xmlns="http://www.w3.org/2000/svg">
<rect x="1" y="1" width="46" height="46" rx="23" stroke="#554A3B" stroke-width="2"/>
<path d="M12.6899 16.7497C12.1202 16.2208 11.8369 15.5661 11.8369 14.7871C11.8369 14.0081 12.1217 13.3246 12.6899 12.7941C13.2595 12.2652 13.9929 12 14.8913 12C15.7897 12 16.4943 12.2652 17.0624 12.7941C17.6321 13.3231 17.9154 13.9884 17.9154 14.7871C17.9154 15.5858 17.6306 16.2208 17.0624 16.7497C16.4928 17.2786 15.7701 17.5438 14.8913 17.5438C14.0126 17.5438 13.2595 17.2786 12.6899 16.7497ZM17.4367 19.7838V36H12.3141V19.7838H17.4367Z" fill="#554A3B"/>
<path d="M34.489 21.3855C35.6056 22.598 36.1631 24.262 36.1631 26.3808V35.7134H31.2982V27.0385C31.2982 25.97 31.021 25.1395 30.4679 24.5485C29.9149 23.9574 29.1695 23.6604 28.2362 23.6604C27.3029 23.6604 26.5575 23.9559 26.0045 24.5485C25.4515 25.1395 25.1742 25.97 25.1742 27.0385V35.7134H20.2805V19.7382H25.1742V21.8569C25.6696 21.1506 26.3378 20.5929 27.1772 20.1822C28.0165 19.7715 28.9604 19.5669 30.0104 19.5669C31.88 19.5669 33.3739 20.1731 34.489 21.3855Z" fill="#554A3B"/>
</svg>
